<?xml version="1.0" encoding="utf-8"?>
<!-- Generator: Adobe Illustrator 26.0.1, SVG Export Plug-In . SVG Version: 6.00 Build 0)  -->
<svg version="1.1" id="Ebene_1" xmlns="http://www.w3.org/2000/svg" xmlns:xlink="http://www.w3.org/1999/xlink" x="0px" y="0px"
	 viewBox="0 0 64 64" style="enable-background:new 0 0 64 64;" xml:space="preserve">
<desc>Created with Sketch.</desc>
<g id="Page-1">
	<path id="path-1" d="M32,0C14.3,0,0,14.3,0,32s14.3,32,32,32s32-14.3,32-32S49.7,0,32,0z M32,60.3C16.5,60.3,3.7,47.5,3.7,32
		S16.5,3.7,32,3.7S60.3,16.5,60.3,32S47.5,60.3,32,60.3z M32,20.7c-1.2,0-2.2,1-2.2,2.2c0,1.2,1,2.2,2.2,2.2c0.7,0,1.2-0.2,1.7-0.7
		c0.5-0.5,0.5-1,0.5-1.5C34.2,21.7,33.2,20.7,32,20.7z M30,28.6v14.8h3.7V28.6H30z"/>
</g>
</svg>
